#N canvas 601 331 1440 781 12;
#X declare -path Abstractions;
#X obj 4 6 declare -path Abstractions;
#X obj 761 358 loadbang;
#X obj 496 585 dac~;
#X obj 506 446 vcf~, f 13;
#X floatatom 550 424 5 0 0 0 - - - 0;
#X obj 506 532 *~;
#X obj 724 508 adsr, f 27;
#X msg 761 178 0;
#X msg 730 179 1;
#X msg 872 486 100;
#X msg 835 486 100;
#X obj 761 155 delay 500;
#X msg 761 486 1;
#X msg 798 486 500;
#X msg 910 486 20;
#X msg 594 424 5;
#X msg 550 398 100;
#X obj 506 363 SawChorusandOctave;
#X obj 505 273 mtof;
#X floatatom 505 297 5 0 0 0 - - - 0;
#X obj 549 273 mtof;
#X floatatom 549 297 5 0 0 0 - - - 0;
#X obj 505 144 notein;
#X obj 653 88 r NoteOn;
#X obj 686 132 bng 19 250 50 0 empty empty empty 0 -10 0 12 #fcfcfc #000000 #000000;
#X obj 603 532 r Stop;
#X obj 505 554 *~;
#X obj 562 585 hsl 162 19 0 1 0 0 empty empty empty -2 -10 0 12 #fcfcfc #000000 #000000 0 1;
#X msg 657 471 1;
#X msg 605 560 0;
#X connect 1 0 15 0;
#X connect 1 0 13 0;
#X connect 1 0 12 0;
#X connect 1 0 9 0;
#X connect 1 0 14 0;
#X connect 1 0 10 0;
#X connect 1 0 16 0;
#X connect 1 0 28 0;
#X connect 3 0 5 0;
#X connect 4 0 3 1;
#X connect 5 0 26 0;
#X connect 6 0 5 1;
#X connect 7 0 6 0;
#X connect 8 0 6 0;
#X connect 9 0 6 4;
#X connect 10 0 6 3;
#X connect 11 0 7 0;
#X connect 12 0 6 1;
#X connect 13 0 6 2;
#X connect 14 0 6 5;
#X connect 15 0 3 2;
#X connect 16 0 4 0;
#X connect 17 0 3 0;
#X connect 18 0 19 0;
#X connect 19 0 17 0;
#X connect 20 0 21 0;
#X connect 21 0 17 0;
#X connect 22 0 18 0;
#X connect 22 0 20 0;
#X connect 23 0 24 0;
#X connect 24 0 8 0;
#X connect 24 0 11 0;
#X connect 25 0 29 0;
#X connect 26 0 2 0;
#X connect 26 0 2 1;
#X connect 27 0 26 1;
#X connect 28 0 27 0;
#X connect 29 0 27 0;
