#N canvas 548 347 1440 785 12;
#X declare -path Abstractions;
#X obj 42 207 saw~;
#X obj 79 207 saw~;
#X obj 115 207 saw~;
#X obj 151 207 saw~;
#X obj 187 207 saw~;
#X floatatom 42 143 3 0 0 0 - - - 0;
#X floatatom 79 143 3 0 0 0 - - - 0;
#X floatatom 115 143 3 0 0 0 - - - 0;
#X floatatom 151 143 3 0 0 0 - - - 0;
#X floatatom 187 143 3 0 0 0 - - - 0;
#X obj 328 418 rev3~, f 50;
#X msg 466 393 100;
#X obj 466 368 loadbang;
#X obj 539 343 hsl 162 19 50 98 0 0 empty empty empty -2 -10 0 12 #fcfcfc #000000 #000000 0 1;
#X obj 678 371 hsl 162 19 0 100 0 0 empty empty empty -2 -10 0 12 #fcfcfc #000000 #000000 0 1;
#X msg 605 395 3000;
#X obj 605 371 loadbang;
#X text 583 318 Reverb Intensity;
#X obj 536 297 loadbang;
#X obj 19 27 declare -path Abstractions;
#X obj 133 441 Wet_Dry;
#X obj 115 466 *~;
#X obj 136 417 hsl 162 19 0 1 0 0 empty empty empty -2 -10 0 12 #fcfcfc #000000 #000000 0 1;
#X obj 328 466 *~;
#X obj 216 485 +~;
#X obj 216 553 dac~;
#X obj 287 275 adsr, f 41;
#X obj 94 67 r notes;
#X obj 94 90 unpack f f f f f;
#X obj 287 163 r noteon;
#X msg 278 204 1;
#X msg 310 226 0;
#X msg 343 254 1;
#X obj 400 231 loadbang;
#X msg 571 253 100;
#X obj 115 294 *~;
#X obj 42 121 +;
#X obj 42 67 r root;
#X obj 79 121 +;
#X obj 115 121 +;
#X obj 151 121 +;
#X obj 187 121 +;
#X obj 133 369 loadbang;
#X obj 187 164 mtof;
#X obj 151 164 mtof;
#X obj 115 164 mtof;
#X obj 79 164 mtof;
#X obj 42 164 mtof;
#X floatatom 42 90 3 0 0 0 - - - 0;
#X obj 299 111 bng 19 250 50 0 empty empty empty 0 -10 0 12 #fcfcfc #000000 #000000;
#X obj 115 272 lop~;
#X floatatom 42 186 3 0 0 0 - - - 0;
#X floatatom 79 186 3 0 0 0 - - - 0;
#X floatatom 115 186 3 0 0 0 - - - 0;
#X floatatom 151 186 3 0 0 0 - - - 0;
#X floatatom 187 186 3 0 0 0 - - - 0;
#X msg 400 254 10;
#X obj 310 204 delay 100;
#X msg 457 254 50;
#X msg 514 254 40;
#X obj 27 229 *~ 1;
#X obj 64 229 *~ 0.35;
#X obj 121 229 *~ 0.25;
#X obj 178 229 *~ 0.2;
#X obj 228 229 *~ 0.15;
#X obj 140 251 - 40;
#X obj 262 507 hsl 162 19 0 1 0 0 empty empty empty -2 -10 0 12 #fcfcfc #000000 #000000 0 1;
#X obj 216 526 *~;
#X msg 367 482 0.6;
#X obj 717 317 loadbang;
#X msg 717 340 85;
#X msg 536 320 90;
#X msg 134 396 0.4;
#X obj 440 504 r Stop;
#X msg 358 546 0;
#X connect 0 0 60 0;
#X connect 1 0 61 0;
#X connect 2 0 62 0;
#X connect 3 0 63 0;
#X connect 4 0 64 0;
#X connect 5 0 47 0;
#X connect 6 0 46 0;
#X connect 7 0 45 0;
#X connect 8 0 44 0;
#X connect 9 0 43 0;
#X connect 10 0 23 0;
#X connect 11 0 10 2;
#X connect 12 0 11 0;
#X connect 12 0 68 0;
#X connect 13 0 10 3;
#X connect 14 0 10 5;
#X connect 15 0 10 4;
#X connect 16 0 15 0;
#X connect 18 0 71 0;
#X connect 20 0 21 1;
#X connect 20 1 23 1;
#X connect 21 0 24 0;
#X connect 22 0 20 0;
#X connect 23 0 24 1;
#X connect 24 0 67 0;
#X connect 26 0 35 1;
#X connect 27 0 28 0;
#X connect 28 0 36 1;
#X connect 28 1 38 1;
#X connect 28 2 39 1;
#X connect 28 3 40 1;
#X connect 28 4 41 1;
#X connect 29 0 30 0;
#X connect 29 0 57 0;
#X connect 30 0 26 0;
#X connect 31 0 26 0;
#X connect 32 0 26 1;
#X connect 33 0 32 0;
#X connect 33 0 56 0;
#X connect 33 0 58 0;
#X connect 33 0 59 0;
#X connect 33 0 34 0;
#X connect 34 0 26 5;
#X connect 35 0 21 0;
#X connect 35 0 10 0;
#X connect 35 0 10 1;
#X connect 36 0 5 0;
#X connect 37 0 38 0;
#X connect 37 0 40 0;
#X connect 37 0 41 0;
#X connect 37 0 39 0;
#X connect 37 0 48 0;
#X connect 38 0 6 0;
#X connect 39 0 7 0;
#X connect 40 0 8 0;
#X connect 41 0 9 0;
#X connect 42 0 72 0;
#X connect 43 0 55 0;
#X connect 44 0 54 0;
#X connect 45 0 53 0;
#X connect 46 0 52 0;
#X connect 47 0 51 0;
#X connect 48 0 36 0;
#X connect 49 0 30 0;
#X connect 49 0 57 0;
#X connect 50 0 35 0;
#X connect 51 0 0 0;
#X connect 51 0 65 0;
#X connect 52 0 1 0;
#X connect 53 0 2 0;
#X connect 54 0 3 0;
#X connect 55 0 4 0;
#X connect 56 0 26 2;
#X connect 57 0 31 0;
#X connect 58 0 26 3;
#X connect 59 0 26 4;
#X connect 60 0 50 0;
#X connect 61 0 50 0;
#X connect 62 0 50 0;
#X connect 63 0 50 0;
#X connect 64 0 50 0;
#X connect 65 0 50 1;
#X connect 66 0 67 1;
#X connect 67 0 25 0;
#X connect 67 0 25 1;
#X connect 68 0 66 0;
#X connect 69 0 70 0;
#X connect 70 0 14 0;
#X connect 71 0 13 0;
#X connect 72 0 22 0;
#X connect 73 0 74 0;
#X connect 74 0 66 0;
