#N canvas 119 200 1012 612 12;
#X declare -path Abstractions;
#X obj 24 19 declare -path Abstractions;
#X obj 15 110 r Kick;
#X obj 169 117 r Snare;
#N canvas 0 22 450 278 (subpatch) 0;
#X array Kick 100 float 3;
#A 0 0 0 0 0 0 0 0 0 0 0 0 0 0 0 0 0 0 0 0 0 0 0 0 0 0 0 0 0 0 0 0 0 0 0 0 0 0 0 0 0 0 0 0 0 0 0 0 0 0 0 0 0 0 0 0 0 0 0 0 0 0 0 0 0 0 0 0 0 0 0 0 0 0 0 0 0 0 0 0 0 0 0 0 0 0 0 0 0 0 0 0 0 0 0 0 0 0 0 0 0;
#X coords 0 1 100 -1 200 140 1;
#X restore 40 469 graph;
#N canvas 0 22 450 278 (subpatch) 0;
#X array Snare 100 float 3;
#A 0 0 0 0 0 0 0 0 0 0 0 0 0 0 0 0 0 0 0 0 0 0 0 0 0 0 0 0 0 0 0 0 0 0 0 0 0 0 0 0 0 0 0 0 0 0 0 0 0 0 0 0 0 0 0 0 0 0 0 0 0 0 0 0 0 0 0 0 0 0 0 0 0 0 0 0 0 0 0 0 0 0 0 0 0 0 0 0 0 0 0 0 0 0 0 0 0 0 0 0 0;
#X coords 0 1 100 -1 200 140 1;
#X restore 245 469 graph;
#N canvas 92 117 450 278 (subpatch) 0;
#X array Hi-Hat 100 float 3;
#A 0 0 0 0 0 0 0 0 0 0 0 0 0 0 0 0 0 0 0 0 0 0 0 0 0 0 0 0 0 0 0 0 0 0 0 0 0 0 0 0 0 0 0 0 0 0 0 0 0 0 0 0 0 0 0 0 0 0 0 0 0 0 0 0 0 0 0 0 0 0 0 0 0 0 0 0 0 0 0 0 0 0 0 0 0 0 0 0 0 0 0 0 0 0 0 0 0 0 0 0 0;
#X coords 0 1 100 -1 200 140 1 0 0;
#X restore 450 469 graph;
#X obj 494 70 r kick_bang;
#X obj 602 71 r snare_bang;
#X obj 494 93 tabplay~ Kick;
#X obj 602 94 tabplay~ Snare;
#X obj 495 413 dac~;
#X obj 15 134 message2symbol;
#X obj 169 139 message2symbol;
#X obj 329 138 message2symbol;
#X obj 15 184 message2symbol;
#X obj 169 186 message2symbol;
#X obj 329 186 message2symbol;
#X obj 15 237 soundfiler;
#X msg 15 210 read -resize \$1 Kick;
#X obj 169 236 soundfiler;
#X obj 329 237 soundfiler;
#X msg 169 210 read -resize \$1 Snare;
#X msg 15 158 ../../Drums/\$1;
#X msg 169 162 ../../Drums/\$1;
#X msg 329 162 ../../Drums/\$1;
#X msg 329 210 read -resize \$1 Hi-Hat;
#X obj 329 115 r Hi-Hat;
#X obj 711 71 r Hi-Hat_bang;
#X obj 711 93 tabplay~ Hi-Hat;
#X obj 729 231 rev3~, f 28;
#X obj 801 139 loadbang;
#X msg 804 209 100;
#X obj 665 365 Wet_Dry;
#X obj 668 342 hsl 162 19 0 1 0 0 empty empty empty -2 -10 0 12 #fcfcfc #000000 #000000 0 1;
#X msg 665 321 0.2;
#X obj 665 300 loadbang;
#X msg 844 209 90;
#X msg 919 210 50;
#X obj 604 211 *~;
#X obj 603 296 +~;
#X obj 729 259 *~;
#X obj 495 388 *~ 1;
#X obj 493 120 *~ 1;
#X obj 603 122 *~ 0.4;
#X obj 712 121 *~ 0.15;
#X obj 292 355 hsl 162 19 0 1 0 0 empty empty empty -2 -10 0 12 #fcfcfc #000000 #000000 0 1;
#X obj 306 312 r Stop;
#X msg 229 294 1, f 1;
#X msg 446 325 0;
#X connect 1 0 11 0;
#X connect 2 0 12 0;
#X connect 6 0 8 0;
#X connect 7 0 9 0;
#X connect 8 0 42 0;
#X connect 9 0 43 0;
#X connect 11 0 22 0;
#X connect 12 0 23 0;
#X connect 13 0 24 0;
#X connect 14 0 18 0;
#X connect 15 0 21 0;
#X connect 16 0 25 0;
#X connect 18 0 17 0;
#X connect 21 0 19 0;
#X connect 22 0 14 0;
#X connect 23 0 15 0;
#X connect 24 0 16 0;
#X connect 25 0 20 0;
#X connect 26 0 13 0;
#X connect 27 0 28 0;
#X connect 28 0 44 0;
#X connect 29 0 40 0;
#X connect 30 0 31 0;
#X connect 30 0 36 0;
#X connect 30 0 37 0;
#X connect 31 0 29 2;
#X connect 32 0 38 1;
#X connect 32 1 40 1;
#X connect 33 0 32 0;
#X connect 34 0 33 0;
#X connect 35 0 34 0;
#X connect 35 0 47 0;
#X connect 36 0 29 3;
#X connect 37 0 29 5;
#X connect 38 0 39 0;
#X connect 39 0 41 0;
#X connect 40 0 39 1;
#X connect 41 0 10 0;
#X connect 41 0 10 1;
#X connect 42 0 41 0;
#X connect 43 0 29 0;
#X connect 43 0 38 0;
#X connect 44 0 29 1;
#X connect 44 0 38 0;
#X connect 45 0 41 1;
#X connect 46 0 48 0;
#X connect 46 0 45 0;
#X connect 47 0 45 0;
#X connect 48 0 45 0;
