#N canvas 765 265 1440 781 12;
#X declare -path Abstractions;
#X obj 3 -245 declare -path Abstractions;
#X obj 471 213 saw~;
#X obj 537 512 hsl 162 19 0 1 0 0 empty empty empty -2 -10 0 12 #fcfcfc #000000 #000000 0 1;
#X text 581 485 Wet/Dry Slider;
#X obj 516 562 *~;
#X obj 717 442 rev3~, f 50;
#X msg 855 417 100;
#X obj 855 392 loadbang;
#X obj 1067 395 hsl 162 19 0 100 0 0 empty empty empty -2 -10 0 12 #fcfcfc #000000 #000000 0 1;
#X msg 994 419 3000;
#X obj 516 594 +~;
#X obj 515 694 *~;
#X obj 758 673 hsl 162 19 0 1 0 0 empty empty empty -2 -10 0 12 #fcfcfc #000000 #000000 0 1;
#X text 928 674 Volume Slider;
#X obj 717 556 *~;
#X obj 430 189 mtof;
#X obj 471 189 mtof;
#X obj 994 395 loadbang;
#X floatatom 582 118 5 30 90 0 - - - 0;
#X obj 582 140 t f b;
#X obj 471 164 + 12;
#X obj 428 423 vcf~, f 13;
#X obj 428 266 lop~ 2000;
#X msg 755 651 0.3;
#X obj 755 630 loadbang;
#X obj 516 378 loadbang;
#X floatatom 446 340 5 0 0 0 - - - 0;
#X obj 446 363 osc~;
#X obj 534 463 loadbang;
#X msg 534 487 0.7;
#X text 367 315 Ring Mod;
#X obj 506 728 dac~;
#X obj 777 307 +~ 2;
#X obj 964 153 +~ 1;
#X obj 964 219 snapshot~;
#X obj 1077 168 metro 10;
#X obj 1078 134 tgl 19 0 empty empty empty 0 -10 0 12 #fcfcfc #000000 #000000 0 1;
#X floatatom 1108 248 5 0 0 0 - - - 0;
#X obj 964 197 +~ 75;
#X obj 534 537 Wet_Dry;
#X msg 516 400 3;
#X obj 531 258 +~ 1;
#X obj 531 324 snapshot~;
#X obj 644 273 metro 10;
#X obj 645 239 tgl 19 0 empty empty empty 0 -10 0 12 #fcfcfc #000000 #000000 0 1;
#X floatatom 607 348 5 0 0 0 - - - 0;
#X obj 531 281 *~ 5;
#X obj 531 236 osc~ 0.056;
#X obj 532 302 +~ 125;
#X obj 964 176 *~ 7;
#X obj 777 279 osc~ 0.1;
#X obj 964 131 osc~ 0.1;
#X obj 428 397 *~ 1;
#X obj 516 646 rev3~, f 30;
#X msg 598 623 100;
#X obj 598 599 loadbang;
#X msg 681 624 3000;
#X obj 681 600 loadbang;
#X msg 640 625 85;
#X obj 430 214 osc~;
#X obj 750 600 hsl 162 19 0 100 0 0 empty empty empty -2 -10 0 12 #fcfcfc #000000 #000000 0 1;
#X obj 562 -113 f 0;
#X obj 593 -113 + 1;
#X obj 561 -147 bng 15 250 50 0 empty empty empty 17 7 0 10 #fcfcfc #000000 #000000;
#X floatatom 562 -92 5 0 0 0 - - - 0;
#X msg 586 -148 0;
#X obj 560 -195 tgl 15 0 empty empty empty 17 7 0 10 #fcfcfc #000000 #000000 0 1;
#X floatatom 562 -46 5 0 0 0 - - - 0;
#X text 621 -111 a counter;
#X text 618 -147 reset the count;
#X obj 656 -178 sel 0;
#X obj 476 14 bng 19 250 50 0 empty empty empty 0 -10 0 12 #fcfcfc #000000 #000000;
#X obj 499 14 bng 19 250 50 0 empty empty empty 0 -10 0 12 #fcfcfc #000000 #000000;
#X obj 560 -173 metro 520;
#X obj 561 15 bng 19 250 50 0 empty empty empty 0 -10 0 12 #fcfcfc #000000 #000000;
#X obj 584 15 bng 19 250 50 0 empty empty empty 0 -10 0 12 #fcfcfc #000000 #000000;
#X obj 646 14 bng 19 250 50 0 empty empty empty 0 -10 0 12 #fcfcfc #000000 #000000;
#X obj 669 14 bng 19 250 50 0 empty empty empty 0 -10 0 12 #fcfcfc #000000 #000000;
#X obj 733 13 bng 19 250 50 0 empty empty empty 0 -10 0 12 #fcfcfc #000000 #000000;
#X obj 756 13 bng 19 250 50 0 empty empty empty 0 -10 0 12 #fcfcfc #000000 #000000;
#X obj 562 -16 sel 0 1 2 3 4 5 6 7;
#X obj 562 -66 % 8;
#X msg 464 71 60;
#X msg 508 71 64;
#X msg 549 71 60;
#X msg 593 72 60;
#X msg 633 70 72;
#X msg 678 71 67;
#X msg 721 70 60;
#X msg 765 70 64;
#X msg 925 418 99;
#X obj 560 -227 loadbang;
#X obj 777 331 *~ 25;
#X obj 777 354 +~ 4000;
#X obj 471 241 *~ 0.3;
#X connect 1 0 94 0;
#X connect 2 0 39 0;
#X connect 4 0 10 0;
#X connect 5 0 14 0;
#X connect 6 0 5 2;
#X connect 7 0 6 0;
#X connect 7 0 90 0;
#X connect 8 0 5 5;
#X connect 9 0 5 4;
#X connect 10 0 53 0;
#X connect 10 0 53 1;
#X connect 11 0 31 0;
#X connect 11 0 31 1;
#X connect 12 0 11 1;
#X connect 14 0 10 1;
#X connect 15 0 59 0;
#X connect 16 0 1 0;
#X connect 17 0 9 0;
#X connect 18 0 19 0;
#X connect 19 0 15 0;
#X connect 19 0 20 0;
#X connect 20 0 16 0;
#X connect 21 1 5 0;
#X connect 21 1 5 1;
#X connect 21 1 4 0;
#X connect 22 0 52 0;
#X connect 23 0 12 0;
#X connect 24 0 23 0;
#X connect 25 0 40 0;
#X connect 26 0 27 0;
#X connect 28 0 29 0;
#X connect 29 0 2 0;
#X connect 32 0 92 0;
#X connect 33 0 49 0;
#X connect 34 0 37 0;
#X connect 35 0 34 0;
#X connect 36 0 35 0;
#X connect 38 0 34 0;
#X connect 39 0 4 1;
#X connect 39 1 14 1;
#X connect 40 0 21 2;
#X connect 41 0 46 0;
#X connect 42 0 45 0;
#X connect 42 0 26 0;
#X connect 43 0 42 0;
#X connect 44 0 43 0;
#X connect 46 0 48 0;
#X connect 47 0 41 0;
#X connect 48 0 42 0;
#X connect 49 0 38 0;
#X connect 50 0 32 0;
#X connect 51 0 33 0;
#X connect 52 0 21 0;
#X connect 53 0 11 0;
#X connect 54 0 53 2;
#X connect 55 0 54 0;
#X connect 55 0 58 0;
#X connect 56 0 53 4;
#X connect 57 0 56 0;
#X connect 58 0 53 3;
#X connect 59 0 22 0;
#X connect 60 0 53 5;
#X connect 61 0 64 0;
#X connect 61 0 62 0;
#X connect 62 0 61 1;
#X connect 63 0 61 0;
#X connect 64 0 81 0;
#X connect 65 0 61 1;
#X connect 66 0 70 0;
#X connect 66 0 73 0;
#X connect 67 0 80 0;
#X connect 70 0 65 0;
#X connect 71 0 82 0;
#X connect 72 0 83 0;
#X connect 73 0 63 0;
#X connect 74 0 84 0;
#X connect 75 0 85 0;
#X connect 76 0 86 0;
#X connect 77 0 87 0;
#X connect 78 0 88 0;
#X connect 79 0 89 0;
#X connect 80 0 71 0;
#X connect 80 1 72 0;
#X connect 80 2 74 0;
#X connect 80 3 75 0;
#X connect 80 4 76 0;
#X connect 80 5 77 0;
#X connect 80 6 78 0;
#X connect 80 7 79 0;
#X connect 81 0 67 0;
#X connect 82 0 18 0;
#X connect 83 0 18 0;
#X connect 84 0 18 0;
#X connect 85 0 18 0;
#X connect 86 0 18 0;
#X connect 87 0 18 0;
#X connect 88 0 18 0;
#X connect 89 0 18 0;
#X connect 90 0 5 3;
#X connect 91 0 66 0;
#X connect 92 0 93 0;
#X connect 93 0 21 1;
#X connect 94 0 22 0;
