#N canvas 568 269 1440 781 12;
#X declare -path Abstractions;
#X obj -2 -40 declare -path Abstractions;
#X obj 491 461 rev3~, f 30;
#X obj 425 682 *~;
#X obj 556 657 hsl 162 19 0 127 0 0 empty empty empty -2 -10 0 12 #fcfcfc #000000 #000000 0 1;
#X obj 553 680 / 127;
#X obj 491 519 *~;
#X obj 715 462 hsl 162 19 0 1 0 0 empty empty empty -2 -10 0 12 #fcfcfc #000000 #000000 0 1;
#X text 730 520 Volume;
#X msg 656 434 1000;
#X msg 573 434 100;
#X msg 698 434 35;
#X obj 573 395 loadbang;
#X obj 438 520 *~;
#X obj 167 419 hsl 162 19 0 1 0 0 empty empty empty -2 -10 0 12 #fcfcfc #000000 #000000 0 1;
#X text 346 418 Dry Volume;
#X obj 929 446 hsl 162 19 0 1 0 0 empty empty empty -2 -10 0 12 #fcfcfc #000000 #000000 0 1;
#X obj 164 392 r Dry;
#X obj 732 434 r Wet;
#X obj 981 478 s Wet;
#X obj 926 524 s Dry;
#X obj 926 501 * -1;
#X text 1099 447 Wet/Dry Mix;
#X obj 438 397 saw~;
#X obj 469 3 bng 19 250 50 0 empty empty empty 0 -10 0 12 #fcfcfc #000000 #000000;
#X obj 504 318 mtof;
#X obj 471 108 f 0;
#X obj 502 108 + 1;
#X obj 470 74 bng 15 250 50 0 empty empty empty 17 7 0 10 #fcfcfc #000000 #000000;
#X floatatom 471 129 5 0 0 0 - - - 0;
#X msg 495 73 0;
#X obj 469 26 tgl 15 0 empty empty empty 17 7 0 10 #fcfcfc #000000 #000000 0 1;
#X obj 471 155 % 8;
#X floatatom 471 175 5 0 0 0 - - - 0;
#X obj 471 204 sel 0 1 2 3 4 5 6 7, f 26;
#X obj 466 232 bng 15 250 50 0 empty empty empty 17 7 0 10 #fcfcfc #000000 #000000;
#X obj 491 232 bng 15 250 50 0 empty empty empty 17 7 0 10 #fcfcfc #000000 #000000;
#X obj 514 232 bng 15 250 50 0 empty empty empty 17 7 0 10 #fcfcfc #000000 #000000;
#X obj 536 232 bng 15 250 50 0 empty empty empty 17 7 0 10 #fcfcfc #000000 #000000;
#X obj 561 232 bng 15 250 50 0 empty empty empty 17 7 0 10 #fcfcfc #000000 #000000;
#X obj 584 232 bng 15 250 50 0 empty empty empty 17 7 0 10 #fcfcfc #000000 #000000;
#X obj 609 232 bng 15 250 50 0 empty empty empty 17 7 0 10 #fcfcfc #000000 #000000;
#X obj 632 232 bng 15 250 50 0 empty empty empty 17 7 0 10 #fcfcfc #000000 #000000;
#X text 530 110 a counter;
#X text 527 74 reset the count;
#X obj 428 589 +~;
#X obj 427 637 *~;
#X obj 553 585 adsr, f 24;
#X msg 578 562 1;
#X msg 713 563 100;
#X msg 539 561 1;
#X msg 646 563 150;
#X msg 614 563 20;
#X msg 682 563 46;
#X msg 419 260 69;
#X msg 451 259 71;
#X msg 487 259 76;
#X msg 523 260 78;
#X msg 557 259 81;
#X msg 588 259 83;
#X msg 620 259 88;
#X msg 652 258 90;
#X obj 565 43 sel 0;
#X obj 438 375 spigot;
#X obj 1526 490 rev3~, f 30;
#X obj 1454 700 *~;
#X obj 1571 672 hsl 162 19 0 127 0 0 empty empty empty -2 -10 0 12 #fcfcfc #000000 #000000 0 1;
#X obj 1568 695 / 127;
#X obj 1526 548 *~;
#X obj 1750 491 hsl 162 19 0 127 0 0 empty empty empty -2 -10 0 12 #fcfcfc #000000 #000000 0 1;
#X obj 1747 516 / 127;
#X text 1765 549 Volume;
#X msg 1691 463 1000;
#X msg 1608 463 100;
#X msg 1733 463 35;
#X obj 1608 424 loadbang;
#X obj 1473 549 *~;
#X obj 1202 448 hsl 162 19 0 127 0 0 empty empty empty -2 -10 0 12 #fcfcfc #000000 #000000 0 1;
#X obj 1199 473 / 127;
#X text 2007 419 Wet Volume;
#X text 1381 447 Dry Volume;
#X obj 1964 475 hsl 162 19 0 127 0 0 empty empty empty -2 -10 0 12 #fcfcfc #000000 #000000 0 1;
#X obj 1961 507 - 127;
#X obj 1961 530 * -1;
#X text 2134 476 Wet/Dry Mix;
#X obj 1473 426 saw~;
#X obj 1504 32 bng 19 250 50 0 empty empty empty 0 -10 0 12 #fcfcfc #000000 #000000;
#X obj 1539 347 mtof;
#X obj 1506 137 f 0;
#X obj 1537 137 + 1;
#X obj 1505 103 bng 15 250 50 0 empty empty empty 17 7 0 10 #fcfcfc #000000 #000000;
#X floatatom 1506 158 5 0 0 0 - - - 0;
#X msg 1530 102 0;
#X obj 1504 55 tgl 15 0 empty empty empty 17 7 0 10 #fcfcfc #000000 #000000 0 1;
#X obj 1506 184 % 8;
#X floatatom 1506 204 5 0 0 0 - - - 0;
#X obj 1506 233 sel 0 1 2 3 4 5 6 7, f 26;
#X obj 1501 261 bng 15 250 50 0 empty empty empty 17 7 0 10 #fcfcfc #000000 #000000;
#X obj 1526 261 bng 15 250 50 0 empty empty empty 17 7 0 10 #fcfcfc #000000 #000000;
#X obj 1549 261 bng 15 250 50 0 empty empty empty 17 7 0 10 #fcfcfc #000000 #000000;
#X obj 1571 261 bng 15 250 50 0 empty empty empty 17 7 0 10 #fcfcfc #000000 #000000;
#X obj 1644 261 bng 15 250 50 0 empty empty empty 17 7 0 10 #fcfcfc #000000 #000000;
#X obj 1667 261 bng 15 250 50 0 empty empty empty 17 7 0 10 #fcfcfc #000000 #000000;
#X text 1565 139 a counter;
#X text 1562 103 reset the count;
#X obj 1463 618 +~;
#X obj 1462 666 *~;
#X obj 1588 614 adsr, f 24;
#X msg 1613 591 1;
#X msg 1748 592 100;
#X msg 1574 590 1;
#X msg 1681 592 150;
#X msg 1649 592 20;
#X msg 1717 592 46;
#X obj 1600 72 sel 0;
#X obj 1473 404 spigot;
#X obj 1959 450 * 127;
#X obj 1199 421 r Dry2;
#X obj 2016 507 s Wet2;
#X obj 1961 553 s Dry2;
#X msg 1592 288 0;
#X msg 1623 288 0;
#X obj 1767 463 r Wet2;
#X obj 961 8 bng 19 250 50 0 empty empty empty 0 -10 0 12 #fcfcfc #000000 #000000;
#X msg 1454 289 69;
#X msg 1486 288 69;
#X msg 1522 288 71;
#X msg 1558 289 71;
#X msg 1655 288 71;
#X msg 1687 287 71;
#X msg 615 434 98;
#X msg 1650 463 90;
#X text 1238 117 Arp Patch;
#X obj 976 91 f 0;
#X obj 1007 91 + 1;
#X floatatom 976 112 5 0 0 0 - - - 0;
#X msg 1000 56 0;
#X text 1035 93 a counter;
#X text 1032 57 reset the count;
#X obj 976 138 % 2;
#X obj 964 168 sel 0 1;
#X obj 469 48 metro 65;
#X obj 1504 77 metro 65;
#X obj 1029 831 dac~;
#X msg 896 251 1;
#X msg 960 254 0;
#X obj 956 -23 r ArpOn;
#X msg 1778 628 0.25;
#X obj 1777 651 * 127;
#X msg 1961 433 1;
#X msg 554 611 0.5;
#X obj 553 630 * 127;
#X obj 1091 758 hsl 162 19 0.4 1 0 0 empty empty empty -2 -10 0 12 #fcfcfc #000000 #000000 0 1;
#X obj 1035 797 *~;
#X obj 928 476 - 1;
#X msg 927 419 0.2;
#X obj 968 384 line 0.2 5, f 11;
#X obj 968 316 bng 19 250 50 0 empty empty empty 0 -10 0 12 #fcfcfc #000000 #000000;
#X obj 968 340 tgl 19 0 empty empty empty 0 -10 0 12 #fcfcfc #000000 #000000 0 1;
#X floatatom 970 414 5 0 0 0 - - - 0;
#X obj 1473 448 lop~ 1000;
#X obj 438 419 lop~ 1000;
#X msg 1115 717 0.4;
#X msg 968 361 \$1 4160;
#X obj 1024 328 delay 8320;
#X obj 874 368 delay 8340;
#X obj 889 294 r rev_bang;
#X obj 1018 -24 r ArpOff;
#X obj 964 656 r ArpOff;
#X msg 964 680 0;
#X connect 1 0 5 0;
#X connect 2 0 152 0;
#X connect 3 0 4 0;
#X connect 4 0 2 1;
#X connect 5 0 44 1;
#X connect 6 0 5 1;
#X connect 8 0 1 4;
#X connect 9 0 1 2;
#X connect 10 0 1 5;
#X connect 11 0 9 0;
#X connect 11 0 129 0;
#X connect 11 0 8 0;
#X connect 11 0 10 0;
#X connect 11 0 47 0;
#X connect 11 0 51 0;
#X connect 11 0 50 0;
#X connect 11 0 52 0;
#X connect 11 0 48 0;
#X connect 11 0 149 0;
#X connect 11 0 154 0;
#X connect 12 0 44 0;
#X connect 13 0 12 1;
#X connect 15 0 18 0;
#X connect 15 0 153 0;
#X connect 16 0 13 0;
#X connect 17 0 6 0;
#X connect 20 0 19 0;
#X connect 22 0 160 0;
#X connect 23 0 30 0;
#X connect 23 0 53 0;
#X connect 24 0 62 0;
#X connect 25 0 28 0;
#X connect 25 0 26 0;
#X connect 26 0 25 1;
#X connect 27 0 25 0;
#X connect 27 0 49 0;
#X connect 28 0 31 0;
#X connect 29 0 25 1;
#X connect 30 0 61 0;
#X connect 30 0 140 0;
#X connect 31 0 32 0;
#X connect 32 0 33 0;
#X connect 33 0 34 0;
#X connect 33 1 35 0;
#X connect 33 2 36 0;
#X connect 33 3 37 0;
#X connect 33 4 38 0;
#X connect 33 5 39 0;
#X connect 33 6 40 0;
#X connect 33 7 41 0;
#X connect 34 0 53 0;
#X connect 35 0 54 0;
#X connect 36 0 55 0;
#X connect 37 0 56 0;
#X connect 38 0 57 0;
#X connect 39 0 58 0;
#X connect 40 0 59 0;
#X connect 41 0 60 0;
#X connect 44 0 45 0;
#X connect 45 0 2 0;
#X connect 46 0 45 1;
#X connect 47 0 46 1;
#X connect 48 0 46 5;
#X connect 49 0 46 0;
#X connect 50 0 46 3;
#X connect 51 0 46 2;
#X connect 52 0 46 4;
#X connect 53 0 24 0;
#X connect 54 0 24 0;
#X connect 55 0 24 0;
#X connect 56 0 24 0;
#X connect 57 0 24 0;
#X connect 58 0 24 0;
#X connect 59 0 24 0;
#X connect 60 0 24 0;
#X connect 61 0 29 0;
#X connect 62 0 22 0;
#X connect 63 0 67 0;
#X connect 64 0 152 0;
#X connect 65 0 66 0;
#X connect 66 0 64 1;
#X connect 67 0 104 1;
#X connect 68 0 69 0;
#X connect 69 0 67 1;
#X connect 71 0 63 4;
#X connect 72 0 63 2;
#X connect 73 0 63 5;
#X connect 74 0 72 0;
#X connect 74 0 130 0;
#X connect 74 0 71 0;
#X connect 74 0 73 0;
#X connect 74 0 148 0;
#X connect 74 0 107 0;
#X connect 74 0 111 0;
#X connect 74 0 110 0;
#X connect 74 0 112 0;
#X connect 74 0 108 0;
#X connect 74 0 146 0;
#X connect 74 0 161 0;
#X connect 75 0 104 0;
#X connect 76 0 77 0;
#X connect 77 0 75 1;
#X connect 80 0 81 0;
#X connect 80 0 117 0;
#X connect 81 0 82 0;
#X connect 82 0 118 0;
#X connect 84 0 159 0;
#X connect 85 0 92 0;
#X connect 85 0 123 0;
#X connect 86 0 114 0;
#X connect 87 0 90 0;
#X connect 87 0 88 0;
#X connect 88 0 87 1;
#X connect 89 0 87 0;
#X connect 89 0 109 0;
#X connect 90 0 93 0;
#X connect 91 0 87 1;
#X connect 92 0 113 0;
#X connect 92 0 141 0;
#X connect 93 0 94 0;
#X connect 94 0 95 0;
#X connect 95 0 96 0;
#X connect 95 1 97 0;
#X connect 95 2 98 0;
#X connect 95 3 99 0;
#X connect 95 6 100 0;
#X connect 95 7 101 0;
#X connect 96 0 123 0;
#X connect 97 0 124 0;
#X connect 98 0 125 0;
#X connect 99 0 126 0;
#X connect 100 0 127 0;
#X connect 101 0 128 0;
#X connect 104 0 105 0;
#X connect 105 0 64 0;
#X connect 106 0 105 1;
#X connect 107 0 106 1;
#X connect 108 0 106 5;
#X connect 109 0 106 0;
#X connect 110 0 106 3;
#X connect 111 0 106 2;
#X connect 112 0 106 4;
#X connect 113 0 91 0;
#X connect 114 0 84 0;
#X connect 115 0 80 0;
#X connect 116 0 76 0;
#X connect 119 0 86 0;
#X connect 120 0 86 0;
#X connect 121 0 68 0;
#X connect 122 0 23 0;
#X connect 122 0 85 0;
#X connect 122 0 132 0;
#X connect 123 0 86 0;
#X connect 124 0 86 0;
#X connect 125 0 86 0;
#X connect 126 0 86 0;
#X connect 127 0 86 0;
#X connect 128 0 86 0;
#X connect 129 0 1 3;
#X connect 130 0 63 3;
#X connect 132 0 134 0;
#X connect 132 0 133 0;
#X connect 133 0 132 1;
#X connect 134 0 138 0;
#X connect 135 0 132 1;
#X connect 138 0 139 0;
#X connect 139 0 143 0;
#X connect 139 1 144 0;
#X connect 140 0 27 0;
#X connect 141 0 89 0;
#X connect 143 0 62 1;
#X connect 143 0 114 1;
#X connect 144 0 114 1;
#X connect 144 0 62 1;
#X connect 144 0 22 0;
#X connect 144 0 84 0;
#X connect 145 0 122 0;
#X connect 145 0 161 0;
#X connect 146 0 147 0;
#X connect 147 0 65 0;
#X connect 148 0 115 0;
#X connect 149 0 150 0;
#X connect 150 0 3 0;
#X connect 151 0 152 1;
#X connect 152 0 142 0;
#X connect 152 0 142 1;
#X connect 153 0 20 0;
#X connect 154 0 15 0;
#X connect 155 0 158 0;
#X connect 155 0 151 0;
#X connect 156 0 157 0;
#X connect 156 0 163 0;
#X connect 156 0 164 0;
#X connect 157 0 162 0;
#X connect 158 0 15 0;
#X connect 159 0 63 0;
#X connect 159 0 63 1;
#X connect 159 0 75 0;
#X connect 160 0 1 0;
#X connect 160 0 1 1;
#X connect 160 0 12 0;
#X connect 161 0 151 0;
#X connect 162 0 155 0;
#X connect 163 0 157 0;
#X connect 164 0 154 0;
#X connect 164 0 161 0;
#X connect 165 0 156 0;
#X connect 166 0 122 0;
#X connect 167 0 168 0;
#X connect 168 0 151 0;
