#N canvas 204 166 817 631 12;
#X obj 458 337 saw~;
#X obj 361 304 saw~;
#X obj 324 303 saw~;
#X obj 497 337 saw~;
#X obj 286 302 saw~;
#X obj 249 301 saw~;
#X obj 336 334 *~ 0.5;
#X obj 263 332 *~ 0.4;
#X obj 497 359 *~ 0.7;
#X obj 365 269 + 0.1;
#X obj 323 269 - 0.1;
#X obj 282 269 + 0.2;
#X obj 241 269 - 0.2;
#X obj 200 269 + 0.3;
#X obj 158 269 - 0.3;
#X obj 212 303 saw~;
#X obj 175 302 saw~;
#X obj 187 334 *~ 0.25;
#X msg 458 227 \$1;
#X obj 452 434 outlet~;
#X obj 497 313 * 2;
#X obj 458 200 inlet;
#X text 502 200 Funadmental Frequency;
#X connect 0 0 19 0;
#X connect 1 0 6 0;
#X connect 2 0 6 0;
#X connect 3 0 8 0;
#X connect 4 0 7 0;
#X connect 5 0 7 0;
#X connect 6 0 19 0;
#X connect 7 0 19 0;
#X connect 8 0 19 0;
#X connect 9 0 1 0;
#X connect 10 0 2 0;
#X connect 11 0 4 0;
#X connect 12 0 5 0;
#X connect 13 0 15 0;
#X connect 14 0 16 0;
#X connect 15 0 17 0;
#X connect 16 0 17 0;
#X connect 17 0 19 0;
#X connect 18 0 0 0;
#X connect 18 0 9 0;
#X connect 18 0 10 0;
#X connect 18 0 11 0;
#X connect 18 0 12 0;
#X connect 18 0 13 0;
#X connect 18 0 14 0;
#X connect 18 0 20 0;
#X connect 20 0 3 0;
#X connect 21 0 18 0;
