#N canvas 840 365 651 300 12;
#X obj 45 171 hsl 162 19 0 1 0 0 empty empty empty -2 -10 0 12 #fcfcfc #000000 #000000 0 1;
#X obj 42 144 r Dry;
#X obj 169 47 s Wet;
#X obj 115 106 s Dry;
#X obj 115 83 * -1;
#X obj 225 170 hsl 162 19 0 1 0 0 empty empty empty -2 -10 0 12 #fcfcfc #000000 #000000 0 1;
#X obj 222 143 r Wet;
#X obj 42 222 outlet;
#X obj 222 223 outlet;
#X obj 115 28 inlet;
#X text 253 22 Wet/Dry Subpatch;
#X text 220 52 Inlet takes in Wet/Dry Value from 0-1 (0 being dry 1 being wet) \, outputs 2 values which should be multiplied by respective signals;
#X obj 115 59 - 1;
#X connect 0 0 7 0;
#X connect 1 0 0 0;
#X connect 4 0 3 0;
#X connect 5 0 8 0;
#X connect 6 0 5 0;
#X connect 9 0 2 0;
#X connect 9 0 12 0;
#X connect 12 0 4 0;
